<svg xmlns="http://www.w3.org/2000/svg" viewBox="0 0 128 128">
  <defs>
    <linearGradient id="brainGradient" x1="0%" y1="0%" x2="100%" y2="100%">
      <stop offset="0%" style="stop-color:#06b6d4;stop-opacity:1" />
      <stop offset="100%" style="stop-color:#3b82f6;stop-opacity:1" />
    </linearGradient>
    <linearGradient id="dataGradient" x1="0%" y1="100%" x2="0%" y2="0%">
      <stop offset="0%" style="stop-color:#8b5cf6;stop-opacity:1" />
      <stop offset="100%" style="stop-color:#06b6d4;stop-opacity:1" />
    </linearGradient>
    <filter id="glow">
      <feGaussianBlur stdDeviation="2" result="coloredBlur"/>
      <feMerge>
        <feMergeNode in="coloredBlur"/>
        <feMergeNode in="SourceGraphic"/>
      </feMerge>
    </filter>
  </defs>
  
  <circle cx="64" cy="64" r="56" fill="none" stroke="url(#brainGradient)" stroke-width="2" opacity="0.2"/>
  
  <circle cx="64" cy="64" r="48" fill="none" stroke="url(#brainGradient)" stroke-width="1.5" opacity="0.15"/>
  
  <path d="M40 35 Q64 20 88 35 Q95 50 88 64 Q64 78 40 64 Q33 50 40 35" fill="url(#brainGradient)" opacity="0.9" filter="url(#glow)"/>
  
  <circle cx="52" cy="48" r="4" fill="white" opacity="0.9"/>
  <circle cx="76" cy="48" r="4" fill="white" opacity="0.9"/>
  
  <circle cx="52" cy="48" r="2" fill="white"/>
  <circle cx="76" cy="48" r="2" fill="white"/>
  
  <path d="M55 58 Q64 64 73 58" fill="none" stroke="white" stroke-width="2" opacity="0.8"/>
  
  <path d="M48 75 Q56 72 64 75" fill="none" stroke="white" stroke-width="1.5" opacity="0.6"/>
  <path d="M64 75 Q72 72 80 75" fill="none" stroke="white" stroke-width="1.5" opacity="0.6"/>
  
  <path d="M95 55 L95 85" fill="none" stroke="url(#dataGradient)" stroke-width="3" stroke-linecap="round"/>
  <rect x="88" y="55" width="14" height="8" fill="url(#dataGradient)" rx="2"/>
  <rect x="88" y="68" width="14" height="5" fill="url(#dataGradient)" rx="2"/>
  <rect x="88" y="78" width="14" height="7" fill="url(#dataGradient)" rx="2"/>
  
  <circle cx="102" cy="98" r="6" fill="#06b6d4" opacity="0.8"/>
  <circle cx="102" cy="98" r="3" fill="white"/>
  
  <circle cx="14" cy="98" r="4" fill="#3b82f6" opacity="0.6"/>
  <circle cx="22" cy="90" r="3" fill="#8b5cf6" opacity="0.5"/>
  <circle cx="10" cy="85" r="2" fill="#06b6d4" opacity="0.7"/>
  
  <path d="M30 95 Q40 90 50 95" fill="none" stroke="#3b82f6" stroke-width="1" opacity="0.3"/>
</svg>